<svg xmlns="http://www.w3.org/2000/svg" width="500" height="500" viewBox="0 0 500 500"><g transform="translate(169,127)translate(81,80.5)rotate(0)translate(-81,-80.5) scale(0.81)" opacity="1"><defs class="defs"/><circle fill="#4FC5B2" cx="100" cy="100" r="100" class="color c1"/><path fill="#FFFFFF" d="M70.521,41.296h30.891c8.033,0,14.916,0.751,20.666,2.246s10.96,4.301,15.649,8.411  c12.179,10.473,18.271,26.379,18.271,47.733c0,7.042-0.612,13.489-1.824,19.305c-1.231,5.803-3.115,11.066-5.671,15.742  c-2.556,4.656-5.829,8.846-9.814,12.516c-3.148,2.832-6.58,5.111-10.295,6.822c-3.728,1.701-7.732,2.906-12.014,3.59  c-4.281,0.705-9.116,1.041-14.491,1.041H71.002c-4.311,0-7.562-0.664-9.741-1.969c-2.178-1.291-3.606-3.148-4.269-5.506  c-0.669-2.385-0.991-5.475-0.991-9.262V55.873c0-5.125,1.133-8.833,3.432-11.125C61.722,42.442,65.416,41.296,70.521,41.296z   M79.703,60.115v79.692h17.958c3.933,0,7.021-0.125,9.255-0.33c2.239-0.211,4.551-0.75,6.948-1.594  c2.385-0.855,4.466-2.068,6.218-3.609c7.924-6.719,11.896-18.316,11.896-34.75c0-11.586-1.745-20.268-5.229-26.031  c-3.478-5.77-7.779-9.439-12.877-11.013c-5.118-1.574-11.283-2.358-18.521-2.358L79.703,60.115L79.703,60.115z" class="color c2"/></g><g transform="translate(43,320)translate(207,26.5)rotate(0)translate(-207,-26.5) scale(2.875)" opacity="1"><defs class="defs"/><path fill="#d0d0d0" d="M2.153,0.297h4.58c1.191,0,2.212,0.111,3.064,0.333c0.852,0.222,1.625,0.638,2.32,1.247  c1.806,1.552,2.709,3.911,2.709,7.077c0,1.044-0.091,2-0.271,2.862c-0.182,0.859-0.461,1.641-0.84,2.334  c-0.379,0.689-0.864,1.312-1.455,1.854c-0.467,0.42-0.976,0.758-1.527,1.013c-0.553,0.252-1.146,0.431-1.781,0.531  c-0.635,0.104-1.351,0.154-2.148,0.154h-4.58c-0.639,0-1.121-0.1-1.444-0.292c-0.323-0.192-0.535-0.468-0.633-0.817  C0.048,16.242,0,15.784,0,15.223V2.458c0-0.76,0.168-1.31,0.509-1.65C0.848,0.467,1.396,0.297,2.153,0.297z M3.514,3.087v11.815  h2.663c0.583,0,1.041-0.02,1.372-0.049c0.332-0.031,0.675-0.111,1.03-0.236c0.354-0.127,0.662-0.307,0.922-0.535  c1.175-0.996,1.764-2.716,1.764-5.153c0-1.717-0.259-3.004-0.776-3.859C9.974,4.215,9.336,3.671,8.58,3.438  c-0.759-0.234-1.673-0.35-2.746-0.35L3.514,3.087L3.514,3.087z M29.347,3.016H21.43V7.29h7.29c0.536,0,0.938,0.121,1.202,0.362  c0.264,0.242,0.396,0.561,0.396,0.956c0,0.396-0.13,0.718-0.391,0.968c-0.26,0.249-0.663,0.374-1.207,0.374h-7.29v4.952h8.189  c0.553,0,0.969,0.129,1.249,0.386c0.28,0.256,0.419,0.601,0.419,1.026c0,0.412-0.139,0.746-0.419,1.004  c-0.28,0.256-0.696,0.386-1.249,0.386H20.07c-0.766,0-1.316-0.17-1.652-0.511c-0.336-0.342-0.503-0.894-0.503-1.651V2.458  c0-0.506,0.075-0.92,0.225-1.24c0.149-0.321,0.384-0.554,0.704-0.701c0.32-0.146,0.729-0.22,1.226-0.22h9.276  c0.56,0,0.977,0.124,1.249,0.374c0.273,0.25,0.409,0.576,0.409,0.979c0,0.412-0.136,0.742-0.409,0.991  C30.324,2.892,29.907,3.016,29.347,3.016z M47.264,12.479c0,1.056-0.271,2-0.811,2.838c-0.54,0.843-1.331,1.496-2.372,1.975  C43.04,17.764,41.805,18,40.377,18c-1.712,0-3.125-0.324-4.237-0.975c-0.789-0.467-1.43-1.09-1.923-1.868  c-0.493-0.78-0.739-1.539-0.739-2.274c0-0.427,0.147-0.794,0.443-1.098c0.296-0.307,0.673-0.458,1.13-0.458  c0.371,0,0.685,0.12,0.941,0.356c0.255,0.234,0.475,0.59,0.656,1.058c0.221,0.554,0.459,1.017,0.716,1.389  c0.256,0.372,0.617,0.679,1.083,0.92c0.464,0.241,1.076,0.361,1.833,0.361c1.041,0,1.887-0.243,2.539-0.729  c0.651-0.485,0.976-1.094,0.976-1.822c0-0.575-0.176-1.047-0.526-1.404c-0.352-0.36-0.806-0.637-1.362-0.825  c-0.556-0.188-1.3-0.393-2.23-0.604c-1.247-0.293-2.29-0.634-3.13-1.026c-0.84-0.392-1.507-0.927-2-1.603  c-0.493-0.677-0.74-1.518-0.74-2.523c0-0.958,0.26-1.809,0.782-2.553c0.52-0.743,1.274-1.316,2.26-1.715  C37.837,0.2,38.996,0,40.33,0c1.064,0,1.986,0.133,2.763,0.398c0.777,0.265,1.421,0.617,1.935,1.057  c0.513,0.439,0.888,0.9,1.125,1.383c0.237,0.483,0.355,0.954,0.355,1.414c0,0.419-0.147,0.797-0.443,1.134  c-0.296,0.336-0.666,0.504-1.107,0.504c-0.402,0-0.708-0.101-0.917-0.303c-0.209-0.201-0.436-0.532-0.681-0.991  c-0.316-0.657-0.694-1.169-1.136-1.538c-0.441-0.368-1.152-0.552-2.129-0.552c-0.908,0-1.64,0.2-2.196,0.6s-0.834,0.88-0.834,1.443  c0,0.349,0.095,0.648,0.283,0.902c0.189,0.253,0.45,0.471,0.781,0.653c0.332,0.182,0.667,0.325,1.006,0.427  c0.339,0.103,0.899,0.254,1.681,0.452c0.979,0.229,1.864,0.482,2.657,0.76c0.792,0.277,1.466,0.613,2.023,1.009  c0.556,0.396,0.99,0.896,1.303,1.502C47.108,10.857,47.264,11.602,47.264,12.479z M50.389,15.852V2.137  c0-0.712,0.162-1.247,0.485-1.603C51.197,0.178,51.615,0,52.128,0c0.528,0,0.956,0.176,1.283,0.528  c0.327,0.352,0.492,0.889,0.492,1.609v13.715c0,0.719-0.165,1.258-0.492,1.612C53.084,17.822,52.657,18,52.128,18  c-0.506,0-0.922-0.18-1.249-0.54C50.553,17.102,50.389,16.564,50.389,15.852z M73.678,10.627v3.337c0,0.442-0.043,0.798-0.131,1.063  c-0.086,0.265-0.246,0.504-0.479,0.718c-0.234,0.214-0.531,0.421-0.896,0.618c-1.049,0.568-2.059,0.984-3.029,1.246  C68.175,17.87,67.118,18,65.974,18c-1.333,0-2.549-0.205-3.645-0.617c-1.098-0.41-2.031-1.009-2.806-1.793  c-0.773-0.783-1.366-1.732-1.781-2.849C57.328,11.624,57.12,10.378,57.12,9c0-1.354,0.201-2.593,0.604-3.717  c0.403-1.124,0.994-2.078,1.775-2.862c0.782-0.784,1.731-1.383,2.852-1.798C63.473,0.208,64.743,0,66.163,0  c1.167,0,2.202,0.156,3.101,0.469c0.899,0.313,1.629,0.706,2.189,1.181c0.559,0.475,0.981,0.978,1.266,1.508  c0.285,0.53,0.426,1.001,0.426,1.413c0,0.443-0.164,0.821-0.489,1.134c-0.326,0.313-0.719,0.469-1.176,0.469  c-0.253,0-0.495-0.059-0.728-0.178s-0.428-0.285-0.586-0.499c-0.434-0.681-0.801-1.195-1.101-1.543  c-0.3-0.349-0.705-0.642-1.213-0.879c-0.509-0.238-1.158-0.356-1.947-0.356c-0.812,0-1.538,0.141-2.177,0.422  c-0.639,0.281-1.186,0.688-1.64,1.223c-0.453,0.534-0.8,1.188-1.042,1.965c-0.24,0.776-0.36,1.635-0.36,2.577  c0,2.042,0.466,3.613,1.401,4.712c0.936,1.101,2.239,1.651,3.911,1.651c0.813,0,1.576-0.106,2.291-0.32  c0.715-0.215,1.438-0.521,2.171-0.915v-2.825h-2.722c-0.655,0-1.15-0.1-1.484-0.298c-0.335-0.196-0.504-0.533-0.504-1.009  c0-0.387,0.14-0.708,0.42-0.962c0.28-0.253,0.66-0.38,1.142-0.38h3.988c0.488,0,0.903,0.044,1.243,0.131  c0.338,0.087,0.61,0.281,0.819,0.582C73.57,9.574,73.678,10.025,73.678,10.627z M81.607,2.114l6.756,10.257V2.018  c0-0.672,0.145-1.177,0.433-1.514C89.084,0.168,89.473,0,89.961,0c0.505,0,0.902,0.168,1.195,0.504  c0.292,0.337,0.438,0.841,0.438,1.514v13.691c0,1.527-0.632,2.291-1.894,2.291c-0.316,0-0.601-0.044-0.853-0.135  c-0.252-0.092-0.49-0.237-0.712-0.437c-0.222-0.196-0.427-0.43-0.612-0.692c-0.19-0.268-0.381-0.537-0.569-0.813l-6.59-10.141V15.98  c0,0.666-0.153,1.168-0.462,1.509C79.596,17.83,79.199,18,78.721,18c-0.498,0-0.896-0.172-1.195-0.518  c-0.301-0.345-0.447-0.845-0.447-1.502V2.553c0-0.569,0.063-1.017,0.188-1.342c0.148-0.356,0.397-0.647,0.744-0.873  C78.355,0.113,78.73,0,79.133,0c0.316,0,0.586,0.051,0.813,0.154c0.227,0.103,0.424,0.241,0.593,0.416  c0.17,0.174,0.344,0.4,0.521,0.677C81.234,1.524,81.418,1.813,81.607,2.114z" class="color c1"/><path fill="#4FC5B2" d="M106.723,3.016h-7.914V7.29h7.289c0.535,0,0.938,0.121,1.2,0.362c0.265,0.242,0.396,0.561,0.396,0.957  s-0.129,0.718-0.391,0.967c-0.26,0.249-0.66,0.374-1.205,0.374h-7.289v4.952h8.188c0.554,0,0.969,0.127,1.25,0.386  c0.276,0.256,0.419,0.601,0.419,1.026c0,0.41-0.143,0.746-0.419,1.004c-0.281,0.259-0.696,0.386-1.25,0.386h-9.549  c-0.767,0-1.316-0.17-1.651-0.513c-0.336-0.34-0.502-0.891-0.502-1.649V2.458c0-0.507,0.074-0.92,0.227-1.241  c0.146-0.321,0.386-0.554,0.703-0.701c0.317-0.146,0.729-0.22,1.227-0.22h9.275c0.562,0,0.979,0.125,1.25,0.374  s0.405,0.576,0.405,0.979c0,0.412-0.135,0.742-0.405,0.992C107.7,2.891,107.283,3.016,106.723,3.016z M114.023,2.315l3.932,11.671  l3.939-11.754c0.205-0.618,0.356-1.046,0.463-1.288c0.102-0.242,0.271-0.459,0.508-0.653c0.236-0.194,0.56-0.291,0.97-0.291  c0.3,0,0.578,0.076,0.836,0.226c0.256,0.15,0.457,0.35,0.604,0.599c0.145,0.25,0.219,0.501,0.219,0.754  c0,0.174-0.023,0.362-0.071,0.563c-0.048,0.202-0.106,0.4-0.177,0.594c-0.072,0.194-0.143,0.394-0.215,0.6l-4.2,11.374  c-0.149,0.437-0.3,0.851-0.45,1.242c-0.148,0.392-0.324,0.733-0.521,1.032c-0.194,0.297-0.459,0.541-0.784,0.729  C118.747,17.9,118.346,18,117.871,18c-0.473,0-0.873-0.093-1.201-0.277c-0.328-0.188-0.592-0.432-0.793-0.735  c-0.199-0.306-0.377-0.65-0.525-1.038c-0.148-0.391-0.301-0.801-0.449-1.235l-4.131-11.279c-0.068-0.206-0.145-0.408-0.219-0.606  c-0.076-0.197-0.139-0.411-0.188-0.641s-0.076-0.423-0.076-0.582c0-0.403,0.162-0.772,0.483-1.104c0.324-0.334,0.729-0.5,1.218-0.5  c0.601,0,1.024,0.184,1.272,0.552C113.512,0.92,113.766,1.508,114.023,2.315z M135.443,0c1.8,0,3.345,0.366,4.634,1.098  c1.29,0.732,2.267,1.774,2.929,3.123C143.67,5.571,144,7.156,144,8.977c0,1.346-0.182,2.568-0.544,3.669  c-0.363,1.101-0.907,2.054-1.633,2.858c-0.729,0.81-1.618,1.427-2.675,1.854C138.091,17.787,136.88,18,135.516,18  c-1.354,0-2.572-0.219-3.645-0.658c-1.074-0.439-1.969-1.06-2.688-1.857c-0.72-0.801-1.262-1.762-1.627-2.887  c-0.367-1.123-0.552-2.339-0.552-3.645c0-1.338,0.188-2.565,0.573-3.681c0.383-1.116,0.938-2.066,1.662-2.85  s1.607-1.383,2.648-1.799C132.936,0.207,134.119,0,135.443,0z M140.438,8.953c0-1.275-0.205-2.379-0.612-3.313  c-0.409-0.934-0.994-1.641-1.759-2.12c-0.762-0.479-1.635-0.718-2.621-0.718c-0.7,0-1.353,0.133-1.945,0.398  c-0.598,0.265-1.105,0.651-1.539,1.158c-0.431,0.506-0.77,1.153-1.018,1.941c-0.25,0.787-0.373,1.672-0.373,2.654  c0,0.988,0.123,1.884,0.373,2.684c0.248,0.799,0.601,1.463,1.054,1.988c0.454,0.525,0.978,0.921,1.563,1.182  c0.586,0.262,1.23,0.396,1.935,0.396c0.897,0,1.726-0.229,2.479-0.681c0.752-0.45,1.354-1.146,1.801-2.088  C140.216,11.489,140.438,10.33,140.438,8.953z" class="color c2"/></g></svg>